<svg xmlns="http://www.w3.org/2000/svg" xmlns:xlink="http://www.w3.org/1999/xlink" width="600" zoomAndPan="magnify" viewBox="0 0 450 85.499998" height="114" preserveAspectRatio="xMidYMid meet" version="1.0"><defs><g/><clipPath id="e8f586342b"><path d="M 108.074219 4.300781 L 172 4.300781 L 172 80.355469 L 108.074219 80.355469 Z M 108.074219 4.300781 " clip-rule="nonzero"/></clipPath><clipPath id="65248342ac"><path d="M 113 4.300781 L 196.058594 4.300781 L 196.058594 80.355469 L 113 80.355469 Z M 113 4.300781 " clip-rule="nonzero"/></clipPath></defs><g clip-path="url(#e8f586342b)"><path fill="#ff3131" d="M 162.230469 4.300781 L 150.226562 24.835938 L 149.640625 23.03125 L 139.078125 4.300781 L 120.855469 4.300781 L 133.609375 26.707031 L 130.710938 26.707031 L 130.710938 34.203125 L 138.210938 34.203125 L 138.210938 34.183594 L 143.164062 34.183594 L 143.164062 41.136719 L 133.125 41.136719 L 133.125 48.628906 L 138.210938 48.628906 L 138.210938 56.125 L 131.53125 56.125 L 117.773438 80.363281 L 127.394531 80.363281 L 171.851562 4.300781 Z M 146.175781 26.722656 L 138.671875 26.722656 L 138.671875 19.230469 L 146.175781 19.230469 Z M 128.640625 49.136719 L 128.640625 56.632812 L 121.140625 56.632812 L 121.140625 49.136719 Z M 108.128906 27.921875 L 115.628906 27.921875 L 115.628906 35.417969 L 108.128906 35.417969 Z M 108.128906 27.921875 " fill-opacity="1" fill-rule="nonzero"/></g><g clip-path="url(#65248342ac)"><path fill="#ffffff" d="M 196.007812 80.363281 L 177.433594 80.363281 L 163.085938 55.300781 L 162.933594 54.613281 L 147.855469 80.363281 L 139.339844 80.363281 L 183.796875 4.300781 L 192.398438 4.300781 L 172.769531 39.5625 Z M 126.878906 20.703125 L 119.378906 20.703125 L 119.378906 28.199219 L 126.882812 28.199219 L 126.882812 20.703125 Z M 120.671875 41.773438 L 113.171875 41.773438 L 113.171875 49.265625 L 120.675781 49.265625 L 120.675781 41.773438 Z M 129.441406 34.28125 L 121.941406 34.28125 L 121.941406 41.773438 L 129.441406 41.773438 Z M 129.441406 34.28125 " fill-opacity="1" fill-rule="nonzero"/></g><g fill="#ffffff" fill-opacity="1"><g transform="translate(1.308146, 65.616274)"><g><path d="M 34.703125 -32.4375 C 33.929688 -33.71875 32.867188 -34.703125 31.515625 -35.390625 C 30.171875 -36.078125 28.582031 -36.421875 26.75 -36.421875 C 23.363281 -36.421875 20.695312 -35.320312 18.75 -33.125 C 16.8125 -30.9375 15.84375 -27.988281 15.84375 -24.28125 C 15.84375 -20.125 16.882812 -16.957031 18.96875 -14.78125 C 21.050781 -12.613281 24.082031 -11.53125 28.0625 -11.53125 C 32.769531 -11.53125 36.128906 -13.65625 38.140625 -17.90625 L 24.625 -17.90625 L 24.625 -27.578125 L 49.734375 -27.578125 L 49.734375 -14.546875 C 48.679688 -11.984375 47.132812 -9.582031 45.09375 -7.34375 C 43.0625 -5.101562 40.488281 -3.257812 37.375 -1.8125 C 34.269531 -0.375 30.726562 0.34375 26.75 0.34375 C 21.90625 0.34375 17.617188 -0.695312 13.890625 -2.78125 C 10.160156 -4.863281 7.273438 -7.765625 5.234375 -11.484375 C 3.203125 -15.210938 2.1875 -19.476562 2.1875 -24.28125 C 2.1875 -29.039062 3.203125 -33.28125 5.234375 -37 C 7.273438 -40.726562 10.144531 -43.632812 13.84375 -45.71875 C 17.550781 -47.800781 21.832031 -48.84375 26.6875 -48.84375 C 32.769531 -48.84375 37.796875 -47.378906 41.765625 -44.453125 C 45.742188 -41.523438 48.21875 -37.519531 49.1875 -32.4375 Z M 34.703125 -32.4375 "/></g></g></g><g fill="#ffffff" fill-opacity="1"><g transform="translate(53.237471, 65.616274)"><g><path d="M 34.703125 -24.828125 C 37.546875 -24.191406 39.800781 -22.785156 41.46875 -20.609375 C 43.132812 -18.441406 43.96875 -15.960938 43.96875 -13.171875 C 43.96875 -9.054688 42.550781 -5.832031 39.71875 -3.5 C 36.882812 -1.164062 32.90625 0 27.78125 0 L 3.84375 0 L 3.84375 -48.359375 L 27.03125 -48.359375 C 31.96875 -48.359375 35.84375 -47.257812 38.65625 -45.0625 C 41.46875 -42.875 42.875 -39.789062 42.875 -35.8125 C 42.875 -32.96875 42.128906 -30.597656 40.640625 -28.703125 C 39.148438 -26.804688 37.171875 -25.515625 34.703125 -24.828125 Z M 17.28125 -29.15625 L 24.078125 -29.15625 C 27.460938 -29.15625 29.15625 -30.550781 29.15625 -33.34375 C 29.15625 -36.21875 27.460938 -37.65625 24.078125 -37.65625 L 17.28125 -37.65625 Z M 25.109375 -10.84375 C 28.492188 -10.84375 30.1875 -12.257812 30.1875 -15.09375 C 30.1875 -16.550781 29.738281 -17.671875 28.84375 -18.453125 C 27.945312 -19.234375 26.675781 -19.625 25.03125 -19.625 L 17.28125 -19.625 L 17.28125 -10.84375 Z M 25.109375 -10.84375 "/></g></g></g><g fill="#ffffff" fill-opacity="1"><g transform="translate(205.150979, 65.616274)"><g><path d="M 2.1875 -24.28125 C 2.1875 -29.039062 3.179688 -33.28125 5.171875 -37 C 7.160156 -40.726562 9.984375 -43.632812 13.640625 -45.71875 C 17.304688 -47.800781 21.515625 -48.84375 26.265625 -48.84375 C 32.304688 -48.84375 37.382812 -47.226562 41.5 -44 C 45.613281 -40.78125 48.265625 -36.398438 49.453125 -30.859375 L 34.984375 -30.859375 C 34.109375 -32.691406 32.90625 -34.085938 31.375 -35.046875 C 29.84375 -36.003906 28.070312 -36.484375 26.0625 -36.484375 C 22.957031 -36.484375 20.476562 -35.375 18.625 -33.15625 C 16.769531 -30.945312 15.84375 -27.988281 15.84375 -24.28125 C 15.84375 -20.53125 16.769531 -17.546875 18.625 -15.328125 C 20.476562 -13.109375 22.957031 -12 26.0625 -12 C 28.070312 -12 29.84375 -12.476562 31.375 -13.4375 C 32.90625 -14.40625 34.109375 -15.800781 34.984375 -17.625 L 49.453125 -17.625 C 48.265625 -12.09375 45.613281 -7.710938 41.5 -4.484375 C 37.382812 -1.265625 32.304688 0.34375 26.265625 0.34375 C 21.515625 0.34375 17.304688 -0.695312 13.640625 -2.78125 C 9.984375 -4.863281 7.160156 -7.765625 5.171875 -11.484375 C 3.179688 -15.210938 2.1875 -19.476562 2.1875 -24.28125 Z M 2.1875 -24.28125 "/></g></g></g><g fill="#ffffff" fill-opacity="1"><g transform="translate(257.1489, 65.616274)"><g><path d="M 17.28125 -10.28125 L 32.3125 -10.28125 L 32.3125 0 L 3.84375 0 L 3.84375 -48.359375 L 17.28125 -48.359375 Z M 17.28125 -10.28125 "/></g></g></g><g fill="#ffffff" fill-opacity="1"><g transform="translate(290.830925, 65.616274)"><g><path d="M 27.03125 0.484375 C 22.5 0.484375 18.332031 -0.578125 14.53125 -2.703125 C 10.738281 -4.835938 7.734375 -7.789062 5.515625 -11.5625 C 3.296875 -15.332031 2.1875 -19.59375 2.1875 -24.34375 C 2.1875 -29.101562 3.296875 -33.367188 5.515625 -37.140625 C 7.734375 -40.910156 10.738281 -43.847656 14.53125 -45.953125 C 18.332031 -48.054688 22.5 -49.109375 27.03125 -49.109375 C 31.601562 -49.109375 35.773438 -48.054688 39.546875 -45.953125 C 43.316406 -43.847656 46.296875 -40.910156 48.484375 -37.140625 C 50.679688 -33.367188 51.78125 -29.101562 51.78125 -24.34375 C 51.78125 -19.59375 50.679688 -15.332031 48.484375 -11.5625 C 46.296875 -7.789062 43.300781 -4.835938 39.5 -2.703125 C 35.707031 -0.578125 31.550781 0.484375 27.03125 0.484375 Z M 27.03125 -12 C 30.457031 -12 33.164062 -13.117188 35.15625 -15.359375 C 37.144531 -17.597656 38.140625 -20.59375 38.140625 -24.34375 C 38.140625 -28.1875 37.144531 -31.21875 35.15625 -33.4375 C 33.164062 -35.65625 30.457031 -36.765625 27.03125 -36.765625 C 23.550781 -36.765625 20.828125 -35.65625 18.859375 -33.4375 C 16.890625 -31.21875 15.90625 -28.1875 15.90625 -24.34375 C 15.90625 -20.550781 16.890625 -17.546875 18.859375 -15.328125 C 20.828125 -13.109375 23.550781 -12 27.03125 -12 Z M 27.03125 -12 "/></g></g></g><g fill="#ffffff" fill-opacity="1"><g transform="translate(344.818211, 65.616274)"><g><path d="M 17.015625 -48.359375 L 17.015625 -20.296875 C 17.015625 -17.691406 17.617188 -15.679688 18.828125 -14.265625 C 20.035156 -12.847656 21.875 -12.140625 24.34375 -12.140625 C 26.820312 -12.140625 28.6875 -12.859375 29.9375 -14.296875 C 31.195312 -15.742188 31.828125 -17.742188 31.828125 -20.296875 L 31.828125 -48.359375 L 45.265625 -48.359375 L 45.265625 -20.296875 C 45.265625 -15.867188 44.328125 -12.085938 42.453125 -8.953125 C 40.578125 -5.816406 38.023438 -3.457031 34.796875 -1.875 C 31.578125 -0.300781 28.003906 0.484375 24.078125 0.484375 C 20.140625 0.484375 16.628906 -0.300781 13.546875 -1.875 C 10.460938 -3.457031 8.039062 -5.800781 6.28125 -8.90625 C 4.519531 -12.019531 3.640625 -15.816406 3.640625 -20.296875 L 3.640625 -48.359375 Z M 17.015625 -48.359375 "/></g></g></g><g fill="#ffffff" fill-opacity="1"><g transform="translate(393.660589, 65.616274)"><g><path d="M 22.984375 -48.359375 C 28.054688 -48.359375 32.5 -47.335938 36.3125 -45.296875 C 40.132812 -43.265625 43.070312 -40.421875 45.125 -36.765625 C 47.1875 -33.109375 48.21875 -28.925781 48.21875 -24.21875 C 48.21875 -19.550781 47.175781 -15.382812 45.09375 -11.71875 C 43.019531 -8.0625 40.070312 -5.191406 36.25 -3.109375 C 32.4375 -1.035156 28.015625 0 22.984375 0 L 3.84375 0 L 3.84375 -48.359375 Z M 21.953125 -11.859375 C 25.878906 -11.859375 28.960938 -12.929688 31.203125 -15.078125 C 33.453125 -17.234375 34.578125 -20.28125 34.578125 -24.21875 C 34.578125 -28.195312 33.453125 -31.269531 31.203125 -33.4375 C 28.960938 -35.613281 25.878906 -36.703125 21.953125 -36.703125 L 17.28125 -36.703125 L 17.28125 -11.859375 Z M 21.953125 -11.859375 "/></g></g></g></svg>